<svg width="146" height="145" version="1.1" xmlns="http://www.w3.org/2000/svg" xmlns:xlink="http://www.w3.org/1999/xlink"><defs><path d="M41.962.684L4.348 9.64v.292c0 3.31-1.686 6.133-4.214 7.69V66.24c0 3.31 2.903 5.743 5.993 5.159l31.812-9.053c2.341-.486 4.12-2.628 4.12-5.158l5.896-51.345c0-3.31-2.903-5.84-5.993-5.159z" id="a"/><path d="M44.843 9.931V9.64L6.45.684C3.294.1.329 2.534.329 5.844l6 51.44c0 2.532 1.721 4.673 4.208 5.16l32.49 9.052c3.155.584 6.12-1.85 6.12-5.159V17.621c-2.582-1.557-4.304-4.477-4.304-7.69z" id="c"/><path d="M.839 2.3C4.429-.73 7.989.183 14.68.183s8.127 12.785 6.867 18.554c-1.26 5.768-3.294 11.644-6.004 11.527C5.76 29.841-2.752 5.33.84 2.3z" id="e"/><path d="M.839 2.3C4.429-.73 7.989.183 14.68.183s8.127 12.785 6.867 18.554c-1.26 5.768-3.294 11.644-6.004 11.527C5.76 29.841-2.752 5.33.84 2.3z" id="g"/></defs><g stroke="none" stroke-width="1" fill="none" fill-rule="evenodd"><g><g><ellipse fill="#000" opacity=".291" cx="70" cy="135.5" rx="53" ry="9.5"/><ellipse fill="#71B200" cx="69.5" cy="112.25" rx="38.5" ry="23.25"/><rect fill="#FFFFFE" opacity=".5" transform="rotate(-45 12.462 5.462)" x="8.611" y="1.589" width="7.703" height="7.747" rx="1.102"/><rect fill="#FFFFFE" opacity=".5" transform="rotate(-45 3.121 23.121)" x=".92" y="20.908" width="4.402" height="4.427" rx="1.102"/><rect fill="#FFFFFE" opacity=".5" transform="rotate(-45 143.2 23.121)" x="141" y="20.908" width="4.402" height="4.427" rx="1.102"/><rect fill="#FFFFFE" opacity=".6" transform="rotate(-45 136.121 64.121)" x="133.92" y="61.908" width="4.402" height="4.427" rx="1.102"/><g><g><g><g><path d="M113.238 64.958a555.865 555.865 0 0 0-2.246-12.315c-.215-2.046-.36-4.127-.384-5.877a14.65 14.65 0 0 0-.05-1.073c.144-5.463.174-10.715.174-15.556 0-5.328.243-20.843-9.782-20.843-8.499 0-15.575 11.393-31.497 11.393-16.494 0-22.062-11.393-31.22-11.393-6.243 0-10.128 5.496-10.128 20.91 0 5.905.1 11.513.302 16.839-.005.144-.011.285-.013.45-.05 3.726-.652 8.953-1.303 12.147-1.027 4.54-2.407 11.329-3.795 20.289-.406 2.625 4.186 5.437 3.787 8.433-3.103 23.265-1.383 27.935 1.804 28.088 3.16.15 7.558-1.514 10.99-9.89 6.718 12.737 16.493 18.813 29.784 18.813 14.045 0 23.291-7.478 29.38-18.737 3.457 8.31 7.806 9.965 10.957 9.814 3.187-.153 4.907-4.823 1.805-28.088-1.195-8.956 2.54-16.952 1.435-23.404z" fill="#78C800"/><path d="M96.14 22.363c-3.578 0-6.357 2.555-7.081 2.555-.286 0-.342-.223-.342-.518 0-.926 1.084-1.24 1.084-1.667 0-.26-.456-.314-.59-.314-3.54 0-8.928 6.683-9.746 6.683-.286 0-.342-.37-.342-.61 0-1.13 1.028-1.816 1.028-2.13 0-.314-.248-.426-.439-.426-1.751 0-5.59 3.824-10.27 3.85-4.68-.026-8.518-3.85-10.27-3.85-.19 0-.437.112-.437.426s1.028 1 1.028 2.13c0 .24-.057.61-.343.61-.819 0-6.206-6.683-9.746-6.683-.134 0-.59.055-.59.314 0 .426 1.085.74 1.085 1.667 0 .295-.058.518-.343.518-.724 0-3.503-2.555-7.081-2.555-4.34 0-10.813 5.11-10.813 22.44 0 16.886 9.252 20.609 16.561 20.609 7.31 0 13.516-5.242 13.516-5.242l2.97-4.48 4.464-2.162 4.463 2.162 2.97 4.48s6.207 5.242 13.516 5.242c7.31 0 16.561-3.723 16.561-20.61 0-17.33-6.472-22.44-10.812-22.44" fill="#8BE200"/><path d="M59.49 46.578c0 7.43-5.14 13.453-11.482 13.453s-11.483-6.023-11.483-13.453 5.141-13.453 11.483-13.453c6.342 0 11.483 6.023 11.483 13.453" fill="#FFF"/><path d="M53.367 46.578c0 4.033-2.742 7.303-6.125 7.303-3.382 0-6.124-3.27-6.124-7.303 0-4.033 2.742-7.303 6.124-7.303 3.383 0 6.125 3.27 6.125 7.303" fill="#3F3F3F"/><path d="M46.477 41.581a3.069 3.069 0 0 1-3.062 3.075 3.069 3.069 0 0 1-3.062-3.075 3.069 3.069 0 0 1 3.062-3.075 3.069 3.069 0 0 1 3.062 3.075m55.883 4.997c0 7.43-5.14 13.453-11.483 13.453-6.342 0-11.483-6.023-11.483-13.453s5.141-13.453 11.483-13.453c6.342 0 11.483 6.023 11.483 13.453" fill="#FFF"/><path d="M97.001 46.578c0 4.033-2.741 7.303-6.124 7.303-3.382 0-6.124-3.27-6.124-7.303 0-4.033 2.742-7.303 6.124-7.303 3.383 0 6.124 3.27 6.124 7.303" fill="#3F3F3F"/><path d="M89.346 41.581a3.069 3.069 0 0 1-3.062 3.075 3.069 3.069 0 0 1-3.062-3.075 3.069 3.069 0 0 1 3.062-3.075 3.069 3.069 0 0 1 3.062 3.075" fill="#FFF"/><path d="M108.484 46.194c.112.25.234.506.37.768-.024-.048-.05-.095-.071-.143-.101-.217-.2-.424-.299-.625M61.022 60.566c0 2.276 2.413 17.146 7.438 17.146 5.33 0 7.872-11.25 7.872-16.779s-4.196.068-4.196.068l-5.414 1.144s-5.7-3.856-5.7-1.58" fill="#71B200"/></g><g><path d="M96.14 22.363c-3.578 0-6.357 2.555-7.081 2.555-.286 0-.342-.223-.342-.518 0-.926 1.084-1.24 1.084-1.667 0-.26-.456-.314-.59-.314-3.54 0-8.928 6.683-9.746 6.683-.286 0-.342-.37-.342-.61 0-1.13 1.028-1.816 1.028-2.13 0-.314-.248-.426-.439-.426-1.751 0-5.59 3.824-10.27 3.85-4.68-.026-8.518-3.85-10.27-3.85-.19 0-.437.112-.437.426s1.028 1 1.028 2.13c0 .24-.057.61-.343.61-.819 0-6.206-6.683-9.746-6.683-.134 0-.59.055-.59.314 0 .426 1.085.74 1.085 1.667 0 .295-.058.518-.343.518-.724 0-3.503-2.555-7.081-2.555-4.34 0-10.813 5.11-10.813 22.44 0 16.886 9.252 20.609 16.561 20.609 7.31 0 13.516-5.242 13.516-5.242l2.97-4.48 4.464-2.162 4.463 2.162 2.97 4.48s6.207 5.242 13.516 5.242c7.31 0 16.561-3.723 16.561-20.61 0-17.33-6.472-22.44-10.812-22.44" fill="#8BE200"/><path d="M59.49 46.578c0 7.43-5.14 13.453-11.482 13.453s-11.483-6.023-11.483-13.453 5.141-13.453 11.483-13.453c6.342 0 11.483 6.023 11.483 13.453" fill="#FFF"/><g><path d="M54.367 49.578c0 4.033-2.742 7.303-6.125 7.303-3.382 0-6.124-3.27-6.124-7.303 0-4.033 2.742-7.303 6.124-7.303 3.383 0 6.125 3.27 6.125 7.303" fill="#3F3F3F"/><path d="M47.477 44.581a3.069 3.069 0 0 1-3.062 3.075 3.069 3.069 0 0 1-3.062-3.075 3.069 3.069 0 0 1 3.062-3.075 3.069 3.069 0 0 1 3.062 3.075" fill="#FFF"/></g><path d="M102.36 46.578c0 7.43-5.14 13.453-11.483 13.453-6.342 0-11.483-6.023-11.483-13.453s5.141-13.453 11.483-13.453c6.342 0 11.483 6.023 11.483 13.453" fill="#FFF"/><g><path d="M97.001 49.578c0 4.033-2.741 7.303-6.124 7.303-3.382 0-6.124-3.27-6.124-7.303 0-4.033 2.742-7.303 6.124-7.303 3.383 0 6.124 3.27 6.124 7.303" fill="#3F3F3F"/><path d="M89.346 44.581a3.069 3.069 0 0 1-3.062 3.075 3.069 3.069 0 0 1-3.062-3.075 3.069 3.069 0 0 1 3.062-3.075 3.069 3.069 0 0 1 3.062 3.075" fill="#FFF"/></g><path d="M108.484 46.194c.112.25.234.506.37.768-.024-.048-.05-.095-.071-.143-.101-.217-.2-.424-.299-.625" fill="#71B200"/></g><path d="M61.51 60.566c0 2.276 2.414 17.146 7.439 17.146 5.33 0 7.872-11.25 7.872-16.779s-4.196.068-4.196.068l-5.414 1.144s-5.7-3.856-5.7-1.58" fill="#71B200"/><path d="M77.433 60.357c0 2.61-6.031 8.899-8.071 8.899-1.987 0-8.005-6.29-8.005-8.834 0-1.436 1.968-7.31 8.005-7.31 6.627 0 8.07 6.396 8.07 7.245z" fill="#FFC200"/><path d="M72.124 55.803c0 1.061-1.371 1.922-3.062 1.922-1.69 0-3.062-.86-3.062-1.922 0-1.062 1.371-1.922 3.062-1.922 1.691 0 3.062.86 3.062 1.922" fill="#FFF3B8"/></g></g><g><g><path d="M110.765 90.47H26.797c-2.295 0-4.112-1.85-4.112-4.186l-1-25.6c0-2.725 2.486-4.672 5.068-4.088l41.932 9.734c.67.195 1.244.195 1.913 0l40.21-9.637c2.583-.584 5.07 1.363 5.07 4.089l-1 25.502c0 2.336-1.818 4.186-4.113 4.186z" fill="#FFF"/><g transform="translate(74 59)"><mask id="b" fill="#fff"><use xlink:href="#a"/></mask><use fill="#199ADA" xlink:href="#a"/><path d="M38.2 31.249l-24.005 5.256c-2.008.487-4.017-.876-4.495-2.92-.478-2.044.86-4.089 2.87-4.575l24.004-5.256c2.008-.487 4.016.876 4.495 2.92.478 2.044-.861 4.088-2.87 4.575z" fill="#1CB0F6" mask="url(#b)"/><path d="M45.026 19.837c-5.131-2.486-11.546-5.254-14.16-3.01-3.32 2.848-1.21 22.975 7.49 28.738 2.566 1.7 4.786 2.42 6.67 2.38V19.836z" fill-opacity=".098" fill="#000" mask="url(#b)"/></g><g transform="translate(16 59)"><mask id="d" fill="#fff"><use xlink:href="#c"/></mask><use fill="#199ADA" xlink:href="#c"/><path d="M2 48.899c2.06.241 4.548-.434 7.478-2.334 8.886-5.763 11.04-25.89 7.65-28.738-2.785-2.34-9.79.77-15.128 3.328v27.744z" fill-opacity=".098" fill="#000" mask="url(#d)"/></g><path d="M69.642 77.887c-4.878 0-8.799-3.991-8.799-8.956v59.034c0 4.965 3.921 8.956 8.799 8.956 4.877 0 8.798-3.991 8.798-8.956V68.931c0 4.965-4.017 8.956-8.798 8.956z" fill="#2DBBFE"/><path d="M105.174 106.017l-10.328 2.24c-2.009.486-4.017-.877-4.495-2.92-.478-2.045.86-4.09 2.869-4.576l10.329-2.239c2.008-.486 4.016.876 4.495 2.92.478 2.142-.766 4.186-2.87 4.575z" fill="#1CB0F6"/></g></g><g><g><g transform="translate(11 73)"><mask id="f" fill="#fff"><use xlink:href="#e"/></mask><use fill="#78C800" transform="matrix(-1 0 0 1 21.961 0)" xlink:href="#e"/><path d="M23.496 3.927C21.4 14.36 14.174 22.076 1.823 27.08c-8.167.226-7.25 6.413 1.666 10.159 16.436-1.17 23.105-12.273 20.007-33.31z" fill-opacity=".2" fill="#1F3B8F" mask="url(#f)"/></g></g></g><g><g><g transform="matrix(-1 0 0 1 127 73)"><mask id="h" fill="#fff"><use xlink:href="#g"/></mask><use fill="#78C800" transform="matrix(-1 0 0 1 21.961 0)" xlink:href="#g"/><path d="M23.496 3.927C21.4 14.36 14.174 22.076 1.823 27.08c-8.167.226-7.25 6.413 1.666 10.159 16.436-1.17 23.105-12.273 20.007-33.31z" fill-opacity=".2" fill="#1F3B8F" mask="url(#h)"/></g></g></g></g><path d="M36.722 120.069c7.056.681 11.853 2.874 11.222 9.027-.63 6.152-8.787 6.182-13.358 5.74-4.57-.44-10.014-2.885-9.56-7.324.455-4.439 5.32-8.06 11.696-7.443m66.556 0c-7.056.681-11.853 2.874-11.222 9.027.63 6.152 8.787 6.182 13.358 5.74 4.57-.44 10.014-2.885 9.56-7.324-.455-4.439-5.32-8.06-11.696-7.443" fill="#D98500"/></g></g></g></svg>